<svg width="84" height="84" viewBox="0 0 84 84" fill="none" xmlns="http://www.w3.org/2000/svg">
<g clip-path="url(#clip0)">
<path d="M69.8466 32.2867L42.0751 23.4846C41.703 23.3666 41.2971 23.3666 40.925 23.4846L13.1535 32.2867C12.463 32.5055 12.0009 33.0914 12 33.7491C11.9991 34.4069 12.4597 34.9937 13.1496 35.214L40.9211 44.0829C41.1083 44.1427 41.3042 44.1726 41.5 44.1726C41.6959 44.1726 41.8917 44.1427 42.0789 44.0829L69.8504 35.214C70.5403 34.9937 71.0008 34.4069 71 33.7491C70.9991 33.0914 70.537 32.5055 69.8466 32.2867V32.2867Z" fill="black"/>
<path d="M66.8484 53.0125V39.4685L63.3914 40.5725V53.0125C62.3502 53.5509 61.6485 54.5596 61.6485 55.7164C61.6485 56.8731 62.3502 57.882 63.3914 58.4203V66.0511C63.3914 66.9086 64.1653 67.6038 65.1199 67.6038C66.0745 67.6038 66.8484 66.9086 66.8484 66.0511V58.4204C67.8897 57.8822 68.5914 56.8732 68.5914 55.7165C68.5914 54.5597 67.8898 53.5509 66.8484 53.0125Z" fill="black"/>
<path d="M41.5 47.278C40.9067 47.278 40.3223 47.1875 39.7631 47.0089L24.1508 42.0231V48.8559C24.1508 50.5276 26.0921 51.9413 29.9209 53.0576C33.2582 54.0307 37.3705 54.5666 41.5 54.5666C45.6295 54.5666 49.7417 54.0307 53.0791 53.0576C56.9079 51.9413 58.8492 50.5276 58.8492 48.8559V42.0231L43.237 47.0089C42.6777 47.1875 42.0933 47.278 41.5 47.278V47.278Z" fill="black"/>
</g>
<circle cx="42" cy="42" r="41.5" stroke="black"/>
<defs>
<clipPath id="clip0">
<rect width="59" height="53" fill="white" transform="translate(12 19)"/>
</clipPath>
</defs>
</svg>
