<svg width="72" height="58" viewBox="0 0 72 58" fill="none" xmlns="http://www.w3.org/2000/svg">
<g clip-path="url(#clip0)">
<path d="M45.7605 33.374C45.4871 33.9939 45.1834 34.6129 44.8566 35.2142C44.7487 35.4026 44.5534 35.5494 44.3127 35.6232C44.072 35.697 43.8049 35.6918 43.5689 35.6088C43.3328 35.5258 43.1465 35.3716 43.05 35.1792C42.9535 34.9868 42.9544 34.7716 43.0526 34.5798C43.3609 34.0125 43.6478 33.4284 43.9054 32.8439C43.9487 32.7457 44.0155 32.6553 44.1022 32.578C44.1888 32.5006 44.2935 32.4377 44.4103 32.393C44.5271 32.3482 44.6537 32.3224 44.7829 32.317C44.912 32.3117 45.0413 32.3269 45.1631 32.3617C45.285 32.3966 45.3972 32.4505 45.4932 32.5203C45.5893 32.5901 45.6673 32.6744 45.7229 32.7685C45.7785 32.8626 45.8105 32.9646 45.8171 33.0686C45.8238 33.1727 45.8049 33.2767 45.7616 33.3749L45.7605 33.374ZM72 16.7466C72.0042 23.9836 68.5145 30.9383 62.2688 36.1404C65.5346 37.2531 68.5013 38.8658 71.0044 40.8891L71.7114 41.4591C71.8029 41.5327 71.8755 41.6201 71.925 41.7163C71.9745 41.8124 72 41.9155 72 42.0197C72 42.1238 71.9745 42.2269 71.925 42.3231C71.8755 42.4192 71.8029 42.5066 71.7114 42.5802L71.0044 43.1502C67.4151 46.0602 62.8944 48.1113 57.9447 49.0755C52.9951 50.0398 47.8104 49.8794 42.9671 48.6122C41.4773 50.657 39.6707 52.541 37.5908 54.2187C37.3818 54.387 37.1338 54.5205 36.8608 54.6116C36.5878 54.7027 36.2952 54.7496 35.9997 54.7496C35.7042 54.7496 35.4117 54.7027 35.1387 54.6116C34.8657 54.5205 34.6176 54.387 34.4087 54.2187C32.3293 52.5406 30.5227 50.6567 29.0323 48.6122C24.1891 49.8793 19.0046 50.0397 14.055 49.0755C9.10545 48.1112 4.58481 46.0601 0.995638 43.1502L0.288575 42.5802C0.197107 42.5066 0.124542 42.4192 0.0750322 42.3231C0.025522 42.2269 3.78901e-05 42.1238 3.78901e-05 42.0197C3.78901e-05 41.9155 0.025522 41.8124 0.0750322 41.7163C0.124542 41.6201 0.197107 41.5327 0.288575 41.4591L0.995638 40.8891C3.49188 38.8701 6.44974 37.2595 9.70595 36.1462C8.30402 34.9729 7.03118 33.7038 5.90176 32.3531C5.82358 32.267 5.76777 32.1691 5.73768 32.0652C5.70759 31.9613 5.70383 31.8535 5.72664 31.7485C5.74945 31.6434 5.79836 31.543 5.87042 31.4535C5.94249 31.364 6.03624 31.2871 6.14606 31.2275C6.25588 31.1679 6.37951 31.1267 6.50955 31.1065C6.63959 31.0862 6.77336 31.0873 6.90286 31.1097C7.03235 31.1321 7.15491 31.1753 7.26319 31.2367C7.37147 31.2982 7.46324 31.3766 7.53301 31.4673C10.4264 34.9346 14.301 37.7986 18.8377 39.8232C23.3743 41.8479 28.4433 42.9753 33.6268 43.1126C27.573 37.9407 24.2111 31.096 24.2331 23.9875C24.2331 23.7814 24.2466 23.5775 24.2522 23.3722C18.2348 18.9587 10.388 16.515 2.25001 16.52H1.96876V16.7466C1.96587 19.4079 2.46235 22.0543 3.44139 24.5961C3.48142 24.6959 3.49648 24.8011 3.48569 24.9056C3.47491 25.0101 3.43849 25.1119 3.37855 25.205C3.31862 25.2981 3.23635 25.3807 3.13651 25.448C3.03668 25.5153 2.92126 25.566 2.79694 25.5971C2.67262 25.6283 2.54186 25.6392 2.41225 25.6294C2.28263 25.6195 2.15673 25.5891 2.04183 25.5397C1.92693 25.4904 1.82531 25.4232 1.74287 25.3421C1.66042 25.2609 1.59878 25.1674 1.56151 25.0669C0.523451 22.3727 -0.00299781 19.5676 1.28399e-05 16.7466V15.7271C0.00016187 15.5168 0.10392 15.3152 0.288494 15.1665C0.473068 15.0178 0.723361 14.9342 0.984388 14.9341H2.25001C5.44954 14.934 8.63375 15.2899 11.7124 15.9917C11.9459 13.422 12.6196 10.8907 13.7143 8.46982L14.1469 7.51147C14.2363 7.3138 14.4195 7.15283 14.6562 7.06395C14.8929 6.97507 15.1637 6.96555 15.4091 7.0375L16.5983 7.3864C20.5235 8.53207 24.1582 10.2419 27.3257 12.4329C29.0533 9.36895 31.453 6.58125 34.4093 4.20365L35.3036 3.48273C35.4917 3.33919 35.7409 3.25919 36 3.25919C36.2591 3.25919 36.5083 3.33919 36.6964 3.48273L37.5913 4.20365C40.5466 6.58168 42.9463 9.36891 44.6754 12.432C47.8429 10.2416 51.4771 8.53194 55.4018 7.38595L56.5909 7.0375C56.7124 7.00181 56.8414 6.98577 56.9707 6.99028C57.0999 6.99479 57.2267 7.01976 57.3439 7.06378C57.4612 7.1078 57.5665 7.16999 57.6538 7.24681C57.7412 7.32362 57.8089 7.41356 57.8531 7.51147L58.2857 8.46982C59.3802 10.8908 60.0541 13.4221 60.2882 15.9917C63.3666 15.2899 66.5507 14.934 69.75 14.9341H71.0156C71.2767 14.9342 71.527 15.0178 71.7115 15.1665C71.8961 15.3152 71.9999 15.5168 72 15.7271V16.7466ZM45.4776 13.9771C46.6074 16.3484 47.3266 18.8337 47.6151 21.363C50.8021 19.2317 54.4379 17.5784 58.3498 16.4815C58.1648 13.929 57.5196 11.4118 56.4345 9.00904L56.3383 8.79607L56.0739 8.87311C52.1702 10.0146 48.5734 11.7471 45.4776 13.9771ZM24.3895 21.368C24.6797 18.8379 25.3989 16.3518 26.527 13.9789C23.4296 11.7482 19.8309 10.0157 15.925 8.87492L15.6606 8.79743L15.5644 9.0104C14.48 11.4132 13.8357 13.9305 13.6519 16.4829C17.5651 17.5806 21.2019 19.2352 24.3895 21.368ZM28.9873 46.9478H28.9918C29.0909 46.9041 29.1986 46.8747 29.3102 46.8608C31.1617 46.3132 32.9291 45.596 34.5774 44.7234C25.9346 44.6959 17.6158 42.0704 11.25 37.3611C7.92434 38.3939 4.90508 39.9779 2.38783 42.0106L2.37658 42.0197L2.38783 42.0287C5.79376 44.7867 10.0989 46.7122 14.8057 47.5826C19.5126 48.4531 24.4291 48.233 28.9873 46.9478ZM41.0884 48.0607C39.3023 47.4731 37.597 46.7374 36 45.8653C34.4029 46.7372 32.6976 47.4729 30.9116 48.0607C32.2821 49.8929 33.9238 51.5841 35.8009 53.0972C35.8235 53.1226 35.8534 53.1434 35.888 53.1577C35.9226 53.172 35.9609 53.1794 35.9997 53.1794C36.0386 53.1794 36.0769 53.172 36.1115 53.1577C36.1461 53.1434 36.1759 53.1226 36.1986 53.0972C38.0759 51.5843 39.7179 49.893 41.0884 48.0607ZM69.6122 42.0106C67.0903 39.9738 64.0645 38.3875 60.7315 37.3547C54.3758 42.0696 46.0603 44.6981 37.4203 44.7234C39.0692 45.5948 40.8367 46.3109 42.6881 46.8577C42.8004 46.8711 42.9088 46.9006 43.0082 46.9447L43.0133 46.9474C47.5714 48.2328 52.4879 48.4529 57.1948 47.5824C61.9017 46.7118 66.2066 44.7861 69.6122 42.0278L69.6235 42.0187L69.6122 42.0106ZM70.0313 16.52H69.75C61.6126 16.5148 53.7661 18.9582 47.749 23.3713C47.7881 24.7642 47.6999 26.1576 47.4851 27.54C47.4522 27.7486 47.3178 27.9381 47.1115 28.0668C46.9052 28.1956 46.6438 28.253 46.3849 28.2265C46.126 28.2 45.8907 28.0918 45.7309 27.9255C45.5711 27.7593 45.4998 27.5488 45.5327 27.3402C45.7522 25.9346 45.8335 24.5172 45.7757 23.1012C45.7701 23.0561 45.7692 23.0106 45.7729 22.9653C45.639 19.9394 44.8541 16.9553 43.4531 14.1457C43.4134 14.0886 43.3828 14.0277 43.362 13.9644C41.7081 10.731 39.2733 7.79442 36.1991 5.32514L36 5.16564L35.8014 5.32604C32.719 7.80191 30.2813 10.7486 28.6313 13.9934C28.621 14.0185 28.6092 14.0432 28.5958 14.0673C26.1838 18.876 25.5808 24.1501 26.8619 29.2328C28.1431 34.3156 31.2517 38.9825 35.8009 42.6527L36 42.8126L36.1986 42.6527C37.511 41.5955 38.7109 40.4514 39.7856 39.2325C39.8596 39.1459 39.9541 39.0721 40.0638 39.0152C40.1735 38.9583 40.2961 38.9196 40.4245 38.9012C40.5529 38.8829 40.6846 38.8852 40.8119 38.9082C40.9391 38.9312 41.0595 38.9743 41.1659 39.0351C41.2723 39.0959 41.3626 39.173 41.4317 39.2622C41.5007 39.3513 41.5471 39.4506 41.5681 39.5543C41.5891 39.658 41.5843 39.764 41.554 39.8662C41.5237 39.9684 41.4685 40.0648 41.3916 40.1496C40.4696 41.1935 39.4604 42.1856 38.3709 43.1189C46.8603 42.8814 54.9042 40 60.8094 35.0812C66.7146 30.1624 70.0205 23.5898 70.0313 16.7471V16.52Z" fill="url(#paint0_linear)"/>
</g>
<defs>
<linearGradient id="paint0_linear" x1="62.3633" y1="50.1106" x2="20.8631" y2="-1.4073" gradientUnits="userSpaceOnUse">
<stop stop-color="#77411E"/>
<stop offset="1" stop-color="#9A582E"/>
</linearGradient>
<clipPath id="clip0">
<rect width="72" height="58" fill="white"/>
</clipPath>
</defs>
</svg>
