<svg width="32" height="34" viewBox="0 0 32 34" fill="none" xmlns="http://www.w3.org/2000/svg">
<path d="M27.4833 23.272C25.5502 21.6186 23.5884 20.6171 21.679 22.268L20.5389 23.2658C19.7047 23.99 18.1537 27.3742 12.1571 20.476C6.16167 13.5865 9.72943 12.5138 10.5649 11.7957L11.7112 10.7967C13.6106 9.14205 12.8938 7.05908 11.5239 4.91493L10.6972 3.61619C9.32108 1.47703 7.82255 0.0721547 5.91816 1.72429L4.88916 2.62341C4.04748 3.23656 1.69478 5.22962 1.12409 9.01592C0.437259 13.559 2.60389 18.7614 7.56779 24.4696C12.5255 30.1803 17.3795 33.0487 21.9775 32.9987C25.7987 32.9575 28.1065 30.907 28.8283 30.1615L29.861 29.2611C31.7604 27.6103 30.5803 25.9294 28.646 24.2723L27.4833 23.272Z" stroke="#272727" stroke-width="2"/>
</svg>
