<svg width="93" height="96" viewBox="0 0 93 96" fill="none" xmlns="http://www.w3.org/2000/svg">
<path d="M40.4958 6.91691L4.48109 42.8685C2.46628 44.8798 2.47096 48.1361 4.49156 50.1416L40.6096 85.9903C42.6302 87.9959 45.9015 87.9912 47.9164 85.9799L83.9311 50.0283C85.9459 48.017 85.9412 44.7608 83.9206 42.7552L47.8026 6.90649C45.782 4.90096 42.5106 4.90563 40.4958 6.91691Z" fill="white" stroke="black"/>
<path d="M44.4289 70.6169C58.0542 70.6169 69.0998 59.6223 69.0998 46.0597C69.0998 32.4972 58.0542 21.5026 44.4289 21.5026C30.8036 21.5026 19.7581 32.4972 19.7581 46.0597C19.7581 59.6223 30.8036 70.6169 44.4289 70.6169Z" fill="black"/>
<path d="M55.8273 29.7989L34.2607 29.9041C31.4072 29.918 29.1054 32.2318 29.1194 35.0721L29.2251 56.5393C29.239 59.3796 31.5635 61.6708 34.417 61.6569L55.9836 61.5517C58.837 61.5378 61.1388 59.224 61.1249 56.3837L61.0192 34.9165C61.0052 32.0762 58.6807 29.785 55.8273 29.7989Z" fill="white"/>
<path d="M44.701 56.2635C50.663 56.2635 55.4961 51.4526 55.4961 45.5181C55.4961 39.5836 50.663 34.7727 44.701 34.7727C38.739 34.7727 33.9059 39.5836 33.9059 45.5181C33.9059 51.4526 38.739 56.2635 44.701 56.2635Z" fill="black" stroke="black"/>
<path d="M44.6912 39.664L38.8315 45.5134L44.708 51.3461L50.5677 45.4967L44.6912 39.664Z" fill="white"/>
</svg>
