<svg width="84" height="84" viewBox="0 0 84 84" fill="none" xmlns="http://www.w3.org/2000/svg">
<path d="M66.4 26.2H55.1333V23.1334C55.1304 21.0172 53.1922 19.3027 50.8 19.3H35.2C32.8078 19.3027 30.8696 21.0172 30.8667 23.1334V26.2H19.6C18.1642 26.2 17 27.2299 17 28.5V45.5659C17.0055 46.5384 17.6982 47.4035 18.7333 47.7304V58.4C18.7333 59.6702 19.8975 60.7 21.3333 60.7H64.6667C66.1025 60.7 67.2667 59.6702 67.2667 58.4V47.7311C68.3018 47.4039 68.9949 46.5384 69 45.5659V28.5C69 27.2299 67.8358 26.2 66.4 26.2ZM32.6 23.1334C32.6 21.8632 33.7642 20.8334 35.2 20.8334H50.8C52.2358 20.8334 53.4 21.8632 53.4 23.1334V26.2H51.6667V23.1334C51.6667 22.71 51.2786 22.3667 50.8 22.3667H35.2C34.7214 22.3667 34.3333 22.71 34.3333 23.1334V26.2H32.6V23.1334ZM49.9333 26.2H36.0667V23.9H49.9333V26.2ZM65.5333 58.4C65.5333 58.8234 65.1453 59.1667 64.6667 59.1667H21.3333C20.8547 59.1667 20.4667 58.8234 20.4667 58.4V47.9939L39.5333 50.3201V52.2667C39.5333 53.5369 40.6975 54.5667 42.1333 54.5667H43.8667C45.3025 54.5667 46.4667 53.5369 46.4667 52.2667V50.3201L65.5333 47.9939V58.4ZM44.7333 52.2667C44.7333 52.6901 44.3453 53.0334 43.8667 53.0334H42.1333C41.6547 53.0334 41.2667 52.6901 41.2667 52.2667V47.6667C41.2667 47.2433 41.6547 46.9 42.1333 46.9H43.8667C44.3453 46.9 44.7333 47.2433 44.7333 47.6667V52.2667ZM67.2667 45.5659C67.2671 45.9481 66.9493 46.2723 66.5215 46.3258L66.2811 46.355L46.4667 48.7722V47.6667C46.4667 46.3965 45.3025 45.3667 43.8667 45.3667H42.1333C40.6975 45.3667 39.5333 46.3965 39.5333 47.6667V48.7722L19.4794 46.3258C19.0516 46.2726 18.7329 45.9485 18.7333 45.5659V28.5C18.7333 28.0767 19.1214 27.7334 19.6 27.7334H66.4C66.8786 27.7334 67.2667 28.0767 67.2667 28.5V45.5659Z" fill="black"/>
<circle cx="42" cy="42" r="41.5" stroke="black"/>
</svg>
