<svg width="359" height="166" viewBox="0 0 359 166" fill="none" xmlns="http://www.w3.org/2000/svg">
<ellipse rx="7.52395" ry="7.05983" transform="matrix(1 0 0 -1 7.52395 158.94)" fill="#A9A28C"/>
<ellipse rx="7.52395" ry="7.05983" transform="matrix(1 0 0 -1 7.52395 114.564)" fill="#A9A28C"/>
<ellipse rx="7.52395" ry="7.05983" transform="matrix(1 0 0 -1 7.52395 70.188)" fill="#A9A28C"/>
<ellipse rx="7.52395" ry="7.05983" transform="matrix(1 0 0 -1 7.52395 25.8119)" fill="#A9A28C"/>
<ellipse rx="7.52395" ry="7.05983" transform="matrix(1 0 0 -1 50.518 158.94)" fill="#A9A28C"/>
<ellipse rx="7.52395" ry="7.05983" transform="matrix(1 0 0 -1 50.518 114.564)" fill="#A9A28C"/>
<ellipse rx="7.52395" ry="7.05983" transform="matrix(1 0 0 -1 50.518 70.188)" fill="#A9A28C"/>
<ellipse rx="7.52395" ry="7.05983" transform="matrix(1 0 0 -1 50.518 25.8118)" fill="#A9A28C"/>
<ellipse rx="7.52395" ry="7.05983" transform="matrix(1 0 0 -1 93.512 158.94)" fill="#A9A28C"/>
<ellipse rx="7.52395" ry="7.05983" transform="matrix(1 0 0 -1 93.512 114.564)" fill="#A9A28C"/>
<ellipse rx="7.52395" ry="7.05983" transform="matrix(1 0 0 -1 93.512 70.188)" fill="#A9A28C"/>
<ellipse rx="7.52395" ry="7.05983" transform="matrix(1 0 0 -1 93.512 25.8118)" fill="#A9A28C"/>
<ellipse rx="7.52395" ry="7.05983" transform="matrix(1 0 0 -1 136.506 158.94)" fill="#A9A28C"/>
<ellipse rx="7.52395" ry="7.05983" transform="matrix(1 0 0 -1 136.506 114.564)" fill="#A9A28C"/>
<ellipse rx="7.52395" ry="7.05983" transform="matrix(1 0 0 -1 136.506 70.188)" fill="#A9A28C"/>
<ellipse rx="7.52395" ry="7.05983" transform="matrix(1 0 0 -1 136.506 25.8118)" fill="#A9A28C"/>
<ellipse rx="7.52395" ry="7.05983" transform="matrix(1 0 0 -1 179.5 158.94)" fill="#A9A28C"/>
<ellipse rx="7.52395" ry="7.05983" transform="matrix(1 0 0 -1 179.5 114.564)" fill="#A9A28C"/>
<ellipse rx="7.52395" ry="7.05983" transform="matrix(1 0 0 -1 179.5 70.188)" fill="#A9A28C"/>
<ellipse rx="7.52395" ry="7.05983" transform="matrix(1 0 0 -1 179.5 25.8118)" fill="#A9A28C"/>
<ellipse rx="7.52395" ry="7.05983" transform="matrix(1 0 0 -1 222.494 158.94)" fill="#A9A28C"/>
<ellipse rx="7.52395" ry="7.05983" transform="matrix(1 0 0 -1 222.494 114.564)" fill="#A9A28C"/>
<ellipse rx="7.52395" ry="7.05983" transform="matrix(1 0 0 -1 222.494 70.188)" fill="#A9A28C"/>
<ellipse rx="7.52395" ry="7.05983" transform="matrix(1 0 0 -1 222.494 25.8118)" fill="#A9A28C"/>
<ellipse rx="7.52395" ry="7.05983" transform="matrix(1 0 0 -1 265.488 158.94)" fill="#A9A28C"/>
<ellipse rx="7.52395" ry="7.05983" transform="matrix(1 0 0 -1 265.488 114.564)" fill="#A9A28C"/>
<ellipse rx="7.52395" ry="7.05983" transform="matrix(1 0 0 -1 265.488 70.188)" fill="#A9A28C"/>
<ellipse rx="7.52395" ry="7.05983" transform="matrix(1 0 0 -1 265.488 25.8118)" fill="#A9A28C"/>
<ellipse rx="7.52395" ry="7.05983" transform="matrix(1 0 0 -1 308.482 158.94)" fill="#A9A28C"/>
<ellipse rx="7.52395" ry="7.05983" transform="matrix(1 0 0 -1 308.482 114.564)" fill="#A9A28C"/>
<ellipse rx="7.52395" ry="7.05983" transform="matrix(1 0 0 -1 308.482 70.188)" fill="#A9A28C"/>
<ellipse rx="7.52395" ry="7.05983" transform="matrix(1 0 0 -1 308.482 25.8118)" fill="#A9A28C"/>
<ellipse rx="7.52395" ry="7.05983" transform="matrix(1 0 0 -1 351.476 158.94)" fill="#A9A28C"/>
<ellipse rx="7.52395" ry="7.05983" transform="matrix(1 0 0 -1 351.476 114.564)" fill="#A9A28C"/>
<ellipse rx="7.52395" ry="7.05983" transform="matrix(1 0 0 -1 351.476 70.188)" fill="#A9A28C"/>
<ellipse rx="7.52395" ry="7.05983" transform="matrix(1 0 0 -1 351.476 25.8118)" fill="#A9A28C"/>
</svg>
